<?xml version="1.0" encoding="utf-8"?>
<!-- Generator: Adobe Illustrator 17.1.0, SVG Export Plug-In . SVG Version: 6.00 Build 0)  -->
<!DOCTYPE svg PUBLIC "-//W3C//DTD SVG 1.1//EN" "http://www.w3.org/Graphics/SVG/1.1/DTD/svg11.dtd">
<svg version="1.1" id="Layer_1" xmlns="http://www.w3.org/2000/svg" xmlns:xlink="http://www.w3.org/1999/xlink" x="0px" y="0px"
	 viewBox="0 0 20 8" enable-background="new 0 0 20 8" xml:space="preserve">
<path fill-rule="evenodd" clip-rule="evenodd" d="M1,3.1h18c0.6,0,1,0.4,1,1c0,0.6-0.4,1-1,1H1c-0.6,0-1-0.4-1-1
	C0,3.5,0.4,3.1,1,3.1z"/>
<path fill-rule="evenodd" clip-rule="evenodd" d="M15.3,6.4l3.1-3c0.4-0.4,1-0.4,1.4,0c0.4,0.4,0.4,1,0,1.4l-3.1,3
	c-0.4,0.4-1,0.4-1.4,0C14.9,7.4,14.9,6.8,15.3,6.4z"/>
<path fill-rule="evenodd" clip-rule="evenodd" d="M18.4,4.7L15,1.6c-0.4-0.4-0.4-1,0-1.4c0.4-0.4,1-0.4,1.4,0l3.4,3.1
	c0.4,0.4,0.4,1,0,1.4C19.3,5.1,18.7,5.1,18.4,4.7z"/>
</svg>
