<?xml version="1.0" encoding="utf-8"?>
<!-- Generator: Adobe Illustrator 17.1.0, SVG Export Plug-In . SVG Version: 6.00 Build 0)  -->
<!DOCTYPE svg PUBLIC "-//W3C//DTD SVG 1.1//EN" "http://www.w3.org/Graphics/SVG/1.1/DTD/svg11.dtd">
<svg version="1.1" id="Layer_1" xmlns="http://www.w3.org/2000/svg" xmlns:xlink="http://www.w3.org/1999/xlink" x="0px" y="0px"
	 viewBox="0 0 292 53" enable-background="new 0 0 292 53" xml:space="preserve">
<path fill="#FFFFFF" d="M0,26.4C0,41.6,10.5,53,27.2,53c9.5,0,16.3-3.9,20.8-8.6l-6.5-9.2c-3.5,3.5-8.6,6.3-13.8,6.3
	c-10,0-14.6-7.8-14.6-15.4c0-7.4,4.3-14.6,14.6-14.6c4.6,0,9.6,2.4,13,5.2l5.9-9.5C41.5,2.3,34.1,0,27.2,0C11.2,0,0,11.5,0,26.4z"/>
<path fill="#FFFFFF" d="M50,26.2C50,41.2,61,53,77,53s27-11.8,27-26.8C104,11.5,93,0,77,0S50,11.5,50,26.2z M63.1,26.2
	c0-8.4,5.8-14.7,13.9-14.7c8.2,0,13.9,6.3,13.9,14.7c0,8.7-5.8,15.3-13.9,15.3C68.8,41.5,63.1,34.9,63.1,26.2z"/>
<path fill="#FFFFFF" d="M112,53h12.7V27.2c0-3.2-0.6-8.7-0.6-8.7h0.1c0,0,2.3,5.4,4.4,8.7L143.2,53H156V0h-12.7v25.8
	c0,3.2,0.6,8.7,0.6,8.7h-0.1c0,0-2.3-5.4-4.4-8.7L124.9,0H112V53z"/>
<path fill="#FFFFFF" d="M162,45.7c4.9,4.9,12,7.3,18.7,7.3c11.9,0,18.3-7.4,18.3-16c0-16.2-22.8-14.5-22.8-21.8
	c0-2.1,1.7-3.7,5.5-3.7c4,0,8.5,2,11.4,4.5l5.3-10.3C194,1.9,188,0,182.3,0c-10.8,0-18.7,6.2-18.7,15.7c0,16.1,22.8,14.9,22.8,22.2
	c0,2-1.8,3.6-5.3,3.6c-4.6,0-9.5-2.8-12.4-5.3L162,45.7z"/>
<path fill="#FFFFFF" d="M205,33.3c0,11.5,8.5,19.7,21.6,19.7c13,0,21.4-8.2,21.4-19.7V0h-12.6v33.3c0,5.4-3.5,8.2-8.9,8.2
	c-5.4,0-8.9-2.9-8.9-8.2V0H205V33.3z"/>
<path fill="#FFFFFF" d="M258,53h34V42.3L271,42l-0.3-42H258V53z"/>
</svg>
