<?xml version="1.0" encoding="utf-8"?>
<!-- Generator: Adobe Illustrator 17.1.0, SVG Export Plug-In . SVG Version: 6.00 Build 0)  -->
<!DOCTYPE svg PUBLIC "-//W3C//DTD SVG 1.1//EN" "http://www.w3.org/Graphics/SVG/1.1/DTD/svg11.dtd">
<svg version="1.1" id="Layer_1" xmlns="http://www.w3.org/2000/svg" xmlns:xlink="http://www.w3.org/1999/xlink" x="0px" y="0px"
	 viewBox="0 0 271 53" enable-background="new 0 0 271 53" xml:space="preserve">
<path d="M0,45.7C4.9,50.6,12,53,18.7,53C30.6,53,37,45.6,37,37c0-16.2-22.8-14.5-22.8-21.8c0-2.1,1.7-3.7,5.5-3.7
	c4,0,8.5,2,11.4,4.5l5.3-10.3C31.9,1.9,26,0,20.3,0C9.4,0,1.6,6.2,1.6,15.7c0,16.1,22.8,14.9,22.8,22.2c0,2-1.8,3.6-5.3,3.6
	c-4.6,0-9.5-2.8-12.4-5.3L0,45.7z"/>
<path d="M55.7,53h12.6V10.7H84V0H40v10.7h15.7V53z"/>
<path d="M90,33.3C90,44.8,98.5,53,111.6,53c12.9,0,21.4-8.2,21.4-19.7V0h-12.6v33.3c0,5.4-3.5,8.2-8.9,8.2c-5.4,0-8.9-2.9-8.9-8.2V0
	H90V33.3z"/>
<path d="M143,53h18.4c16.3,0,26.7-11.6,26.7-27.6C188,9.3,177.6,0,161.3,0H143V53z M155.6,42.3V10.7h5.2c8.5,0,14.1,5,14.1,14.7
	c0,9.8-5.3,16.9-14.1,16.9H155.6z"/>
<path d="M196,53h13V0h-13V53z"/>
<path d="M217,26.2c0,15.1,11,26.8,27,26.8s27-11.8,27-26.8C271,11.5,260,0,244,0S217,11.5,217,26.2z M230.1,26.2
	c0-8.4,5.8-14.7,13.9-14.7s13.9,6.3,13.9,14.7c0,8.7-5.8,15.3-13.9,15.3S230.1,34.9,230.1,26.2z"/>
</svg>
